<svg width="56" height="56" viewBox="0 0 56 56" fill="none" xmlns="http://www.w3.org/2000/svg">
<circle cx="28" cy="28" r="28" fill="#FFEED1"/>
<path d="M23.6667 27.576L26.3333 30.2427L32.3333 24.2427M38.3333 28.2427C38.3333 34.7873 31.1947 39.5472 28.5973 41.0625C28.3021 41.2347 28.1545 41.3208 27.9462 41.3655C27.7846 41.4002 27.5487 41.4002 27.3871 41.3655C27.1788 41.3208 27.0312 41.2347 26.736 41.0625C24.1386 39.5472 17 34.7873 17 28.2427V21.8661C17 20.8001 17 20.2671 17.1743 19.8089C17.3284 19.4042 17.5786 19.043 17.9035 18.7567C18.2713 18.4326 18.7704 18.2454 19.7685 17.8711L26.9176 15.1902C27.1948 15.0863 27.3334 15.0343 27.476 15.0137C27.6024 14.9954 27.7309 14.9954 27.8574 15.0137C27.9999 15.0343 28.1385 15.0863 28.4157 15.1902L35.5648 17.8711C36.5629 18.2454 37.062 18.4326 37.4298 18.7567C37.7547 19.043 38.005 19.4042 38.159 19.8089C38.3333 20.2671 38.3333 20.8001 38.3333 21.8661V28.2427Z" stroke="#F09005" stroke-width="1.5" stroke-linecap="round" stroke-linejoin="round"/>
</svg>
