<svg width="24" height="24" viewBox="0 0 24 24" fill="none" xmlns="http://www.w3.org/2000/svg">
<path d="M18.7222 5.26264L5.27778 18.7071M7.72222 10.1515V5.26264M5.27778 7.70709H10.1667M13.8333 16.2626H18.7222M6.86667 22.9849H17.1333C19.1869 22.9849 20.2136 22.9849 20.998 22.5852C21.6879 22.2337 22.2488 21.6728 22.6004 20.9828C23 20.1985 23 19.1717 23 17.1182V6.85153C23 4.798 23 3.77124 22.6004 2.9869C22.2488 2.29697 21.6879 1.73604 20.998 1.38451C20.2136 0.984863 19.1869 0.984863 17.1333 0.984863H6.86667C4.81314 0.984863 3.78638 0.984863 3.00203 1.38451C2.31211 1.73604 1.75118 2.29697 1.39964 2.9869C1 3.77124 1 4.798 1 6.85153V17.1182C1 19.1717 1 20.1985 1.39964 20.9828C1.75118 21.6728 2.31211 22.2337 3.00203 22.5852C3.78638 22.9849 4.81314 22.9849 6.86667 22.9849Z" stroke="white" stroke-width="1.5" stroke-linecap="round" stroke-linejoin="round"/>
</svg>
